# xmcd CD database file
#
# Track frame offsets:
#	150
#	14237
#	34657
#	87330
#	104182
#	116782
#	132460
#	170772
#	200752
#
# Disc length: 2759 seconds
#
# Revision: 1
# Processed by: cddbd v1.5.2PL0 Copyright (c) Steve Scherf et al.
# Submitted via: CDex 1.70beta2
#
DISCID=8d0ac509
DTITLE=Duke Elington - Master of Jazz Vol. 6: Duke Ellington
DYEAR=1986
DGENRE=Jazz
TTITLE0=Take the A Train
TTITLE1=Blow Boy Blow
TTITLE2=Medley
TTITLE3=Kinda Dukish
TTITLE4=Things Aint't What They used to Be
TTITLE5=Satin Doll
TTITLE6="New World A-Comin'"
TTITLE7=VIP Boogie - Jam With Sam
TTITLE8=The Good Years of Jazz
EXTD=YEAR: 1986
EXTT0=
EXTT1=
EXTT2=
EXTT3=
EXTT4=
EXTT5=
EXTT6=
EXTT7=
EXTT8=
PLAYORDER=
